:SAMPLES-PER-SECOND 30
:FULLY-SPECIFIED
:DEGREES
252
root  -3.12794 41.0177 0.815658 -179.631 -85.1996 -177.222
RightUpLeg  -0.650891 -0.506104 -1.29483
RightLeg  -4.3186 -15.3067 1.44417
RightFoot  2.93594 -0.282321 2.4877
RightToes  -3.13588e-008 1.75238e-005 3.56266e-009
Spine  6.08792 -5.1217 -8.60957
Spine1  -10.5137 -6.20364 11.6051
HEad  -7.44517 -4.68748 1.82022
LeftShoulder1  2.31825 -3.57737 -26.6237
LeftArm  22.2998 3.56988 -35.4184
LeftForeArm  34.2152 -64.8628 -20.9117
LeftHand  -0.894463 -2.93298 12.6862
RightShoulder  1.39612 1.42352 22.1456
RightArm  -3.78802 -14.8545 37.1787
RightForeArm  41.8623 74.3363 38.9113
RightHand  -0.567588 8.09604 -5.24613
LeftUpLeg  1.3524 1.13278 2.78659
LeftLeg  -5.23497 19.9936 -2.22039
LeftFoot  1.7954 0.309103 -2.76098
LeftToes  4.76812e-008 1.47286e-008 1.3089e-009
253
root  -3.15439 41.0171 0.821841 179.482 -85.0616 -176.454
RightUpLeg  -0.398361 -0.447562 -1.21415
RightLeg  -4.51307 -15.2325 1.45371
RightFoot  2.98147 -0.281792 2.48224
RightToes  -3.13588e-008 1.75238e-005 3.56266e-009
Spine  6.07776 -5.14462 -8.42674
Spine1  -10.416 -6.22136 11.4316
HEad  -7.43069 -4.55489 1.90541
LeftShoulder1  2.33965 -3.55135 -27.0611
LeftArm  24.3758 5.4404 -36.9429
LeftForeArm  31.7488 -58.1805 -15.3377
LeftHand  -0.925285 -3.37363 12.4792
RightShoulder  1.40946 1.44064 22.3313
RightArm  -2.77897 -15.7864 37.2584
RightForeArm  37.6509 72.5721 34.0187
RightHand  -0.54848 8.14708 -5.06616
LeftUpLeg  1.5419 1.18387 2.83543
LeftLeg  -5.22302 20.0734 -2.19574
LeftFoot  1.72995 0.307449 -2.74268
LeftToes  4.76812e-008 1.47286e-008 1.3089e-009
254
root  -3.15011 41.0168 0.829423 -179.833 -84.9433 -177.136
RightUpLeg  -0.450748 -0.51324 -1.29415
RightLeg  -4.46011 -15.0299 1.45076
RightFoot  2.96789 -0.279196 2.44355
RightToes  -3.13588e-008 1.75238e-005 3.56266e-009
Spine  6.28946 -5.11208 -8.52812
Spine1  -10.6656 -6.18504 11.5358
HEad  -7.46228 -4.48849 1.86441
LeftShoulder1  2.39793 -3.62422 -27.5589
LeftArm  25.8623 7.72234 -38.5761
LeftForeArm  29.5754 -50.6545 -11.4018
LeftHand  -0.902429 -3.24237 12.3587
RightShoulder  1.38954 1.333 22.5662
RightArm  -1.12443 -16.5314 37.1648
RightForeArm  33.018 70.3797 29.5523
RightHand  -0.558065 7.93325 -5.22138
LeftUpLeg  1.50995 1.08107 2.72702
LeftLeg  -5.14982 20.3096 -2.1211
LeftFoot  1.69117 0.310838 -2.79904
LeftToes  4.76812e-008 1.47286e-008 1.3089e-009
255
root  -3.1539 41.0165 0.8379 179.364 -84.6363 -176.272
RightUpLeg  -0.489344 -0.391512 -1.19198
RightLeg  -4.57411 -14.8471 1.43622
RightFoot  3.05996 -0.281885 2.48586
RightToes  -3.13588e-008 1.75238e-005 3.56266e-009
Spine  6.16517 -5.01262 -8.34404
Spine1  -10.5461 -6.08136 11.4296
HEad  -7.64206 -4.39803 1.82143
LeftShoulder1  2.52715 -3.83324 -28.3668
LeftArm  27.0025 9.92402 -39.8126
LeftForeArm  29.2222 -42.4962 -8.28597
LeftHand  -0.962399 -3.43716 12.8738
RightShoulder  1.5062 1.70609 22.7562
RightArm  -0.115895 -17.6629 36.9341
RightForeArm  29.0071 67.6797 25.393
RightHand  -0.528719 7.62217 -5.06889
LeftUpLeg  1.44321 1.11018 2.79177
LeftLeg  -5.04099 20.5737 -2.06597
LeftFoot  1.61308 0.313998 -2.84869
LeftToes  4.76812e-008 1.47286e-008 1.3089e-009
256
root  -3.15426 41.0162 0.839958 179.711 -84.2234 -176.651
RightUpLeg  -0.546239 -0.387307 -1.21181
RightLeg  -4.47878 -14.4291 1.384
RightFoot  3.0283 -0.283987 2.51818
RightToes  -3.13588e-008 1.75238e-005 3.56266e-009
Spine  6.32043 -4.83552 -8.36723
Spine1  -10.5742 -5.91055 11.3749
HEad  -8.04132 -4.33099 1.82098
LeftShoulder1  2.75086 -4.24439 -29.4766
LeftArm  27.185 12.7022 -40.0846
LeftForeArm  30.4668 -35.3883 -6.15314
LeftHand  -1.083 -4.14799 13.4206
RightShoulder  1.54817 1.79709 23.0618
RightArm  0.900659 -18.3295 37.0071
RightForeArm  24.9969 64.1489 21.2966
RightHand  -0.481574 7.59039 -4.66055
LeftUpLeg  1.55868 1.06765 2.73463
LeftLeg  -5.10317 21.0462 -2.07501
LeftFoot  1.59494 0.312847 -2.82882
LeftToes  4.76812e-008 1.47286e-008 1.3089e-009
257
root  -3.13906 41.0159 0.836384 -179.783 -83.7797 -177.079
RightUpLeg  -0.804515 -0.312975 -1.20298
RightLeg  -4.27031 -14.047 1.26073
RightFoot  2.98304 -0.284903 2.53139
RightToes  -3.13588e-008 1.75238e-005 3.56266e-009
Spine  6.41132 -4.69668 -8.41209
Spine1  -10.3785 -5.79458 11.2611
HEad  -8.44336 -4.18747 2.06732
LeftShoulder1  2.5961 -3.81168 -29.4471
LeftArm  27.1365 15.2798 -41.173
LeftForeArm  30.6788 -29.9602 -4.81271
LeftHand  -1.07566 -3.93727 13.6145
RightShoulder  1.59967 1.86676 23.6825
RightArm  1.23748 -18.7114 37.0722
RightForeArm  22.4394 60.6857 18.2436
RightHand  -0.537633 7.84937 -5.0729
LeftUpLeg  1.50495 1.05565 2.70482
LeftLeg  -5.09303 21.4973 -2.09877
LeftFoot  1.55249 0.31942 -2.92735
LeftToes  4.76812e-008 1.47286e-008 1.3089e-009
258
root  -3.17022 41.0156 0.827885 179.475 -83.7379 -176.49
RightUpLeg  -0.460794 -0.304261 -1.12905
RightLeg  -4.52745 -14.0158 1.33618
RightFoot  3.02268 -0.28221 2.48805
RightToes  -3.13588e-008 1.75238e-005 3.56266e-009
Spine  6.58714 -4.61482 -8.40877
Spine1  -10.2049 -5.74988 11.2728
HEad  -8.6858 -4.20736 2.10276
LeftShoulder1  2.44685 -3.42558 -29.2701
LeftArm  25.5798 18.494 -41.7391
LeftForeArm  32.9276 -27.4169 -4.13322
LeftHand  -1.04981 -4.08667 13.0953
RightShoulder  1.50356 1.54649 23.672
RightArm  1.88994 -19.2673 37.3509
RightForeArm  21.6954 57.6018 15.9491
RightHand  -0.558421 7.68184 -5.31241
LeftUpLeg  1.71964 1.14485 2.79163
LeftLeg  -5.0576 21.4223 -2.083
LeftFoot  1.49225 0.317226 -2.87941
LeftToes  4.76812e-008 1.47286e-008 1.3089e-009
259
root  -3.15827 41.0154 0.81406 179.584 -83.7122 -176.522
RightUpLeg  -0.557851 -0.256749 -1.09322
RightLeg  -4.54538 -14.0525 1.31844
RightFoot  3.0562 -0.280255 2.45575
RightToes  -3.13588e-008 1.75238e-005 3.56266e-009
Spine  5.88576 -4.26883 -8.54383
Spine1  -9.04484 -5.48543 11.24
HEad  -9.78519 -4.87659 2.17925
LeftShoulder1  2.40265 -3.34577 -29.0134
LeftArm  25.5781 20.2616 -41.7962
LeftForeArm  33.0242 -26.6188 -3.95824
LeftHand  -1.07729 -4.07581 13.4465
RightShoulder  1.53055 1.62086 23.7741
RightArm  1.3882 -20.2516 37.1775
RightForeArm  20.6304 55.7649 14.8574
RightHand  -0.595055 7.67099 -5.64101
LeftUpLeg  1.59785 1.15511 2.81806
LeftLeg  -5.0056 21.4573 -2.08129
LeftFoot  1.47718 0.321025 -2.9119
LeftToes  4.76812e-008 1.47286e-008 1.3089e-009
260
root  -3.13582 41.0152 0.802259 179.587 -83.9315 -176.493
RightUpLeg  -0.634031 -0.30714 -1.10916
RightLeg  -4.48254 -14.2157 1.36566
RightFoot  3.02029 -0.282787 2.49279
RightToes  -3.13588e-008 1.75238e-005 3.56266e-009
Spine  5.75028 -4.21644 -8.56076
Spine1  -8.42639 -5.4798 11.0944
HEad  -10.33 -5.33283 2.14237
LeftShoulder1  2.13458 -2.76698 -27.9662
LeftArm  24.6484 22.1034 -42.4321
LeftForeArm  32.7873 -27.5228 -4.16693
LeftHand  -1.04841 -3.73314 13.563
RightShoulder  1.46024 1.3628 23.9248
RightArm  1.77091 -20.6307 37.1517
RightForeArm  20.1036 55.1335 14.5298
RightHand  -0.587235 7.6787 -5.56903
LeftUpLeg  1.45244 1.14733 2.83792
LeftLeg  -4.89934 21.2443 -2.02994
LeftFoot  1.48595 0.327453 -2.97952
LeftToes  4.76812e-008 1.47286e-008 1.3089e-009
261
root  -3.11107 41.0152 0.794319 179.479 -84.3342 -176.314
RightUpLeg  -0.692811 -0.316888 -1.1104
RightLeg  -4.50731 -14.5899 1.42316
RightFoot  3.01299 -0.277696 2.41145
RightToes  -3.13588e-008 1.75238e-005 3.56266e-009
Spine  5.59457 -4.14772 -8.83115
Spine1  -8.05468 -5.48845 11.5036
HEad  -10.8625 -5.98589 1.85337
LeftShoulder1  2.07175 -2.63635 -27.6521
LeftArm  23.4446 23.3089 -42.6009
LeftForeArm  33.4657 -28.7713 -4.4056
LeftHand  -1.05421 -3.84672 13.4765
RightShoulder  1.46875 1.4365 23.6298
RightArm  1.55233 -20.9762 37.4207
RightForeArm  19.9684 54.7506 14.317
RightHand  -0.557563 7.96326 -5.20711
LeftUpLeg  1.22942 1.08704 2.83125
LeftLeg  -4.78904 20.9231 -1.9175
LeftFoot  1.51605 0.332283 -3.01992
LeftToes  4.76812e-008 1.47286e-008 1.3089e-009
262
root  -3.08549 41.0152 0.785418 179.618 -84.5985 -176.468
RightUpLeg  -0.711339 -0.320198 -1.12073
RightLeg  -4.45895 -14.8511 1.41265
RightFoot  3.02599 -0.27977 2.44131
RightToes  -3.13588e-008 1.75238e-005 3.56266e-009
Spine  5.56397 -3.9609 -9.06723
Spine1  -7.78813 -5.36556 11.8026
HEad  -10.6586 -6.07789 1.9997
LeftShoulder1  2.09156 -2.69152 -27.6697
LeftArm  23.0947 23.4358 -42.4819
LeftForeArm  33.4096 -29.4745 -4.56622
LeftHand  -1.03469 -3.62018 13.551
RightShoulder  1.42428 1.30879 23.4912
RightArm  1.09219 -20.7432 37.8387
RightForeArm  19.5978 54.4554 14.1787
RightHand  -0.539668 8.10087 -5.01053
LeftUpLeg  1.2263 1.10801 2.85307
LeftLeg  -4.90418 20.637 -1.99299
LeftFoot  1.59731 0.33649 -3.0518
LeftToes  4.76812e-008 1.47286e-008 1.3089e-009
